<svg width="96" height="58" viewBox="0 0 96 58" fill="none" xmlns="http://www.w3.org/2000/svg">
<path d="M10.256 8.81818L16.5841 28.7102H16.827L23.1679 8.81818H29.3043L20.2787 35H13.1452L4.10685 8.81818H10.256ZM36.7756 35V8.81818H42.3111V19.6207H53.5483V8.81818H59.071V35H53.5483V24.1847H42.3111V35H36.7756ZM91.0558 17.9844H85.4564C85.3541 17.2599 85.1453 16.6165 84.8299 16.054C84.5146 15.483 84.1098 14.9972 83.6155 14.5966C83.1211 14.196 82.5501 13.8892 81.9024 13.6761C81.2632 13.4631 80.5686 13.3565 79.8186 13.3565C78.4635 13.3565 77.2831 13.6932 76.2774 14.3665C75.2717 15.0312 74.4919 16.0028 73.9379 17.2812C73.3839 18.5511 73.1069 20.0937 73.1069 21.9091C73.1069 23.7756 73.3839 25.3437 73.9379 26.6136C74.5004 27.8835 75.2845 28.8423 76.2902 29.4901C77.2959 30.1378 78.4592 30.4616 79.7802 30.4616C80.5217 30.4616 81.2078 30.3636 81.8385 30.1676C82.4777 29.9716 83.0444 29.6861 83.5387 29.3111C84.0331 28.9276 84.4422 28.4631 84.766 27.9176C85.0984 27.3722 85.3285 26.75 85.4564 26.0511L91.0558 26.0767C90.9109 27.2784 90.5487 28.4375 89.9691 29.554C89.3981 30.6619 88.6268 31.6548 87.6552 32.5327C86.6922 33.402 85.5416 34.0923 84.2035 34.6037C82.874 35.1065 81.3697 35.358 79.6907 35.358C77.3555 35.358 75.2674 34.8295 73.4265 33.7727C71.5941 32.7159 70.1453 31.1861 69.0799 29.1832C68.0231 27.1804 67.4947 24.7557 67.4947 21.9091C67.4947 19.054 68.0316 16.625 69.1055 14.6222C70.1794 12.6193 71.6368 11.0937 73.4777 10.0455C75.3186 8.98864 77.3896 8.46023 79.6907 8.46023C81.2078 8.46023 82.614 8.67329 83.9095 9.09943C85.2135 9.52557 86.3683 10.1477 87.374 10.9659C88.3797 11.7756 89.1978 12.7685 89.8285 13.9446C90.4677 15.1207 90.8768 16.4673 91.0558 17.9844Z" fill="#5B9BF3"/>
<path d="M8.52557 52V41.8182H10.6783V46.0192H15.0483V41.8182H17.196V52H15.0483V47.794H10.6783V52H8.52557ZM22.4112 52.1491C21.6257 52.1491 20.9496 51.9901 20.3828 51.6719C19.8194 51.3504 19.3852 50.8963 19.0803 50.3097C18.7753 49.7197 18.6229 49.022 18.6229 48.2166C18.6229 47.4311 18.7753 46.7417 19.0803 46.1484C19.3852 45.5552 19.8144 45.0928 20.3679 44.7614C20.9247 44.4299 21.5777 44.2642 22.3267 44.2642C22.8305 44.2642 23.2995 44.3454 23.7337 44.5078C24.1712 44.6669 24.5523 44.9072 24.8771 45.2287C25.2053 45.5502 25.4605 45.9545 25.6428 46.4418C25.825 46.9257 25.9162 47.4924 25.9162 48.142V48.7237H19.468V47.4112H23.9226C23.9226 47.1063 23.8563 46.8362 23.7237 46.6009C23.5911 46.3655 23.4072 46.1816 23.1719 46.049C22.9399 45.9131 22.6697 45.8452 22.3615 45.8452C22.04 45.8452 21.755 45.9197 21.5064 46.0689C21.2611 46.2147 21.0689 46.4119 20.9297 46.6605C20.7905 46.9058 20.7192 47.1792 20.7159 47.4808V48.7287C20.7159 49.1065 20.7855 49.433 20.9247 49.7081C21.0672 49.9832 21.2678 50.1953 21.5263 50.3445C21.7848 50.4936 22.0914 50.5682 22.446 50.5682C22.6813 50.5682 22.8968 50.535 23.0923 50.4688C23.2879 50.4025 23.4553 50.303 23.5945 50.1705C23.7337 50.0379 23.8397 49.8755 23.9126 49.6832L25.8714 49.8125C25.772 50.2831 25.5682 50.6941 25.2599 51.0455C24.955 51.3935 24.5606 51.6652 24.0767 51.8608C23.5961 52.053 23.041 52.1491 22.4112 52.1491ZM29.4759 52.1442C28.9886 52.1442 28.5545 52.0597 28.1733 51.8906C27.7921 51.7183 27.4905 51.4647 27.2685 51.13C27.0497 50.7919 26.9403 50.371 26.9403 49.8672C26.9403 49.4429 27.0182 49.0866 27.174 48.7983C27.3298 48.5099 27.5419 48.2779 27.8104 48.1023C28.0788 47.9266 28.3838 47.794 28.7251 47.7045C29.0698 47.6151 29.4311 47.5521 29.8089 47.5156C30.2531 47.4692 30.611 47.4261 30.8828 47.3864C31.1546 47.3433 31.3518 47.2803 31.4744 47.1974C31.5971 47.1146 31.6584 46.992 31.6584 46.8295V46.7997C31.6584 46.4848 31.5589 46.2412 31.3601 46.0689C31.1645 45.8965 30.8861 45.8104 30.5249 45.8104C30.1437 45.8104 29.8404 45.8949 29.6151 46.0639C29.3897 46.2296 29.2405 46.4384 29.1676 46.6903L27.2088 46.5312C27.3082 46.0672 27.5038 45.6662 27.7955 45.3281C28.0871 44.9867 28.4633 44.7249 28.924 44.5426C29.388 44.357 29.925 44.2642 30.5348 44.2642C30.959 44.2642 31.3651 44.3139 31.7528 44.4134C32.1439 44.5128 32.4903 44.6669 32.7919 44.8757C33.0968 45.0845 33.3371 45.353 33.5128 45.6811C33.6884 46.0059 33.7763 46.3954 33.7763 46.8494V52H31.7678V50.9411H31.7081C31.5855 51.1797 31.4214 51.3902 31.2159 51.5724C31.0104 51.7514 30.7635 51.8923 30.4751 51.995C30.1868 52.0945 29.8537 52.1442 29.4759 52.1442ZM30.0824 50.6825C30.3939 50.6825 30.669 50.6212 30.9077 50.4986C31.1463 50.3726 31.3336 50.2036 31.4695 49.9915C31.6054 49.7794 31.6733 49.5391 31.6733 49.2706V48.4602C31.607 48.5033 31.5159 48.5431 31.3999 48.5795C31.2872 48.6127 31.1596 48.6442 31.017 48.674C30.8745 48.7005 30.732 48.7254 30.5895 48.7486C30.447 48.7685 30.3177 48.7867 30.2017 48.8033C29.9531 48.8397 29.736 48.8977 29.5504 48.9773C29.3648 49.0568 29.2206 49.1645 29.1179 49.3004C29.0152 49.433 28.9638 49.5987 28.9638 49.7976C28.9638 50.0859 29.0682 50.3063 29.277 50.4588C29.4891 50.608 29.7576 50.6825 30.0824 50.6825ZM37.5373 41.8182V52H35.4194V41.8182H37.5373ZM43.2956 44.3636V45.9545H38.6969V44.3636H43.2956ZM39.7409 42.5341H41.8588V49.6534C41.8588 49.849 41.8887 50.0014 41.9483 50.1108C42.008 50.2169 42.0908 50.2914 42.1969 50.3345C42.3063 50.3776 42.4322 50.3991 42.5748 50.3991C42.6742 50.3991 42.7736 50.3909 42.873 50.3743C42.9725 50.3544 43.0487 50.3395 43.1017 50.3295L43.4348 51.9055C43.3288 51.9387 43.1796 51.9768 42.9874 52.0199C42.7952 52.0663 42.5615 52.0945 42.2864 52.1044C41.776 52.1243 41.3285 52.0563 40.9441 51.9006C40.5629 51.7448 40.2663 51.5028 40.0542 51.1747C39.842 50.8466 39.7376 50.4323 39.7409 49.9318V42.5341ZM46.9572 47.5852V52H44.8393V41.8182H46.8975V45.7109H46.987C47.1594 45.2602 47.4378 44.9072 47.8223 44.652C48.2067 44.3935 48.689 44.2642 49.269 44.2642C49.7993 44.2642 50.2617 44.3802 50.6561 44.6122C51.0538 44.8409 51.362 45.1707 51.5808 45.6016C51.8029 46.0291 51.9122 46.5412 51.9089 47.1378V52H49.791V47.5156C49.7943 47.045 49.675 46.6787 49.4331 46.4169C49.1944 46.1551 48.8597 46.0241 48.4288 46.0241C48.1404 46.0241 47.8852 46.0855 47.6632 46.2081C47.4444 46.3307 47.2721 46.5097 47.1461 46.745C47.0235 46.977 46.9605 47.2571 46.9572 47.5852ZM65.8393 45.3828H63.6618C63.622 45.1011 63.5408 44.8509 63.4181 44.6321C63.2955 44.41 63.1381 44.2211 62.9458 44.0653C62.7536 43.9096 62.5315 43.7902 62.2797 43.7074C62.0311 43.6245 61.7609 43.5831 61.4693 43.5831C60.9423 43.5831 60.4833 43.714 60.0922 43.9759C59.7011 44.2344 59.3978 44.6122 59.1824 45.1094C58.9669 45.6032 58.8592 46.2031 58.8592 46.9091C58.8592 47.6349 58.9669 48.2448 59.1824 48.7386C59.4011 49.2325 59.706 49.6054 60.0971 49.8572C60.4882 50.1091 60.9406 50.2351 61.4544 50.2351C61.7427 50.2351 62.0095 50.197 62.2548 50.1207C62.5034 50.0445 62.7238 49.9335 62.916 49.7876C63.1083 49.6385 63.2673 49.4579 63.3933 49.2457C63.5226 49.0336 63.612 48.7917 63.6618 48.5199L65.8393 48.5298C65.783 48.9972 65.6421 49.4479 65.4167 49.8821C65.1947 50.313 64.8947 50.6991 64.5169 51.0405C64.1423 51.3786 63.6949 51.647 63.1745 51.8459C62.6575 52.0414 62.0725 52.1392 61.4196 52.1392C60.5114 52.1392 59.6994 51.9337 58.9835 51.5227C58.2709 51.1117 57.7074 50.5168 57.2931 49.7379C56.8822 48.959 56.6767 48.0161 56.6767 46.9091C56.6767 45.7988 56.8855 44.8542 57.3031 44.0753C57.7207 43.2964 58.2875 42.7031 59.0034 42.2955C59.7193 41.8845 60.5247 41.679 61.4196 41.679C62.0095 41.679 62.5564 41.7618 63.0602 41.9276C63.5673 42.0933 64.0164 42.3352 64.4075 42.6534C64.7986 42.9683 65.1168 43.3544 65.362 43.8118C65.6106 44.2692 65.7697 44.7929 65.8393 45.3828ZM69.5208 52.1442C69.0336 52.1442 68.5994 52.0597 68.2182 51.8906C67.8371 51.7183 67.5355 51.4647 67.3134 51.13C67.0946 50.7919 66.9853 50.371 66.9853 49.8672C66.9853 49.4429 67.0632 49.0866 67.2189 48.7983C67.3747 48.5099 67.5868 48.2779 67.8553 48.1023C68.1238 47.9266 68.4287 47.794 68.7701 47.7045C69.1148 47.6151 69.476 47.5521 69.8539 47.5156C70.298 47.4692 70.656 47.4261 70.9277 47.3864C71.1995 47.3433 71.3967 47.2803 71.5194 47.1974C71.642 47.1146 71.7033 46.992 71.7033 46.8295V46.7997C71.7033 46.4848 71.6039 46.2412 71.405 46.0689C71.2095 45.8965 70.931 45.8104 70.5698 45.8104C70.1886 45.8104 69.8854 45.8949 69.66 46.0639C69.4346 46.2296 69.2855 46.4384 69.2125 46.6903L67.2537 46.5312C67.3532 46.0672 67.5487 45.6662 67.8404 45.3281C68.132 44.9867 68.5082 44.7249 68.9689 44.5426C69.4329 44.357 69.9699 44.2642 70.5797 44.2642C71.004 44.2642 71.41 44.3139 71.7978 44.4134C72.1889 44.5128 72.5352 44.6669 72.8368 44.8757C73.1417 45.0845 73.382 45.353 73.5577 45.6811C73.7334 46.0059 73.8212 46.3954 73.8212 46.8494V52H71.8127V50.9411H71.753C71.6304 51.1797 71.4663 51.3902 71.2608 51.5724C71.0553 51.7514 70.8084 51.8923 70.5201 51.995C70.2317 52.0945 69.8986 52.1442 69.5208 52.1442ZM70.1273 50.6825C70.4389 50.6825 70.714 50.6212 70.9526 50.4986C71.1912 50.3726 71.3785 50.2036 71.5144 49.9915C71.6503 49.7794 71.7182 49.5391 71.7182 49.2706V48.4602C71.6519 48.5033 71.5608 48.5431 71.4448 48.5795C71.3321 48.6127 71.2045 48.6442 71.062 48.674C70.9194 48.7005 70.7769 48.7254 70.6344 48.7486C70.4919 48.7685 70.3626 48.7867 70.2466 48.8033C69.998 48.8397 69.781 48.8977 69.5953 48.9773C69.4097 49.0568 69.2656 49.1645 69.1628 49.3004C69.0601 49.433 69.0087 49.5987 69.0087 49.7976C69.0087 50.0859 69.1131 50.3063 69.3219 50.4588C69.534 50.608 69.8025 50.6825 70.1273 50.6825ZM75.4643 52V44.3636H77.5176V45.696H77.5971C77.7363 45.2221 77.97 44.8641 78.2981 44.6222C78.6262 44.3769 79.0041 44.2543 79.4316 44.2543C79.5377 44.2543 79.652 44.2609 79.7747 44.2741C79.8973 44.2874 80.005 44.3056 80.0978 44.3288V46.2081C79.9984 46.1783 79.8609 46.1518 79.6852 46.1286C79.5095 46.1054 79.3488 46.0938 79.2029 46.0938C78.8914 46.0938 78.613 46.1617 78.3677 46.2976C78.1258 46.4302 77.9335 46.6158 77.791 46.8544C77.6518 47.093 77.5822 47.3681 77.5822 47.6797V52H75.4643ZM84.3175 52.1491C83.532 52.1491 82.8558 51.9901 82.2891 51.6719C81.7256 51.3504 81.2914 50.8963 80.9865 50.3097C80.6816 49.7197 80.5291 49.022 80.5291 48.2166C80.5291 47.4311 80.6816 46.7417 80.9865 46.1484C81.2914 45.5552 81.7206 45.0928 82.2741 44.7614C82.831 44.4299 83.4839 44.2642 84.233 44.2642C84.7367 44.2642 85.2057 44.3454 85.6399 44.5078C86.0774 44.6669 86.4586 44.9072 86.7834 45.2287C87.1115 45.5502 87.3667 45.9545 87.549 46.4418C87.7313 46.9257 87.8224 47.4924 87.8224 48.142V48.7237H81.3743V47.4112H85.8288C85.8288 47.1063 85.7625 46.8362 85.63 46.6009C85.4974 46.3655 85.3134 46.1816 85.0781 46.049C84.8461 45.9131 84.576 45.8452 84.2678 45.8452C83.9463 45.8452 83.6612 45.9197 83.4126 46.0689C83.1674 46.2147 82.9751 46.4119 82.8359 46.6605C82.6967 46.9058 82.6255 47.1792 82.6222 47.4808V48.7287C82.6222 49.1065 82.6918 49.433 82.831 49.7081C82.9735 49.9832 83.174 50.1953 83.4325 50.3445C83.6911 50.4936 83.9976 50.5682 84.3523 50.5682C84.5876 50.5682 84.803 50.535 84.9986 50.4688C85.1941 50.4025 85.3615 50.303 85.5007 50.1705C85.6399 50.0379 85.746 49.8755 85.8189 49.6832L87.7777 49.8125C87.6783 50.2831 87.4744 50.6941 87.1662 51.0455C86.8613 51.3935 86.4669 51.6652 85.983 51.8608C85.5024 52.053 84.9472 52.1491 84.3175 52.1491Z" fill="#7D7987"/>
</svg>
